REM DIRINDEX 1\8,1\2\11,1\3\12,1\3\14,1\5\15,1\5\16,1\6\17,1\6\18,1\4\19,1\4\20,1\4\21,1\4\22,1\7\23,1\7\24,1\7\25,1\2\9\26,1\2\9\27,1\2\10\28,1\2\10\29,1\2\10\30,1\2\10\31,1\2\10\32,1\3\13\33,1\3\13\34,1\3\13\35
REM DIRNAME cjc123,folder01,folder02,folder03,folder04,folder05,folder06,folder07,folder08,folder09,folder10,folder11,folder12,folder13,folder14,folder15,folder16,folder17,folder18,folder19,folder20,folder21,folder22,folder23,folder24,folder25,folder26,folder27,folder28,folder29,folder30,folder31,folder32,folder33,folder34
TITLE ""
FILE "140 140_—á•¶UNIT3_SET6.mp3" MP3
  TRACK 01 AUDIO
    TITLE "22:cjc123_3417"
    INDEX 01 00:00:00
  TRACK 02 AUDIO
    TITLE "0:"
    INDEX 01 00:02:59
  TRACK 03 AUDIO
    TITLE "19:cjc123_3418"
    INDEX 01 00:03:29
  TRACK 04 AUDIO
    TITLE "0:"
    INDEX 01 00:07:68
  TRACK 05 AUDIO
    TITLE "20:cjc123_3419"
    INDEX 01 00:08:30
  TRACK 06 AUDIO
    TITLE "0:"
    INDEX 01 00:13:14
  TRACK 07 AUDIO
    TITLE "21:cjc123_3420"
    INDEX 01 00:13:43
  TRACK 08 AUDIO
    TITLE "0:"
    INDEX 01 00:18:09
  TRACK 09 AUDIO
    TITLE "19:cjc123_3421"
    INDEX 01 00:18:66
  TRACK 10 AUDIO
    TITLE "0:"
    INDEX 01 00:22:68
  TRACK 11 AUDIO
    TITLE "20:cjc123_3422"
    INDEX 01 00:23:34
  TRACK 12 AUDIO
    TITLE "0:"
    INDEX 01 00:27:47
  TRACK 13 AUDIO
    TITLE "21:cjc123_3423"
    INDEX 01 00:28:04
  TRACK 14 AUDIO
    TITLE "0:"
    INDEX 01 00:32:05
  TRACK 15 AUDIO
    TITLE "19:cjc123_3424"
    INDEX 01 00:32:62
  TRACK 16 AUDIO
    TITLE "0:"
    INDEX 01 00:37:32
  TRACK 17 AUDIO
    TITLE "20:cjc123_3425"
    INDEX 01 00:37:69
  TRACK 18 AUDIO
    TITLE "0:"
    INDEX 01 00:42:35
  TRACK 19 AUDIO
    TITLE "21:cjc123_3426"
    INDEX 01 00:42:63
  TRACK 20 AUDIO
    TITLE "0:"
    INDEX 01 00:47:32
  TRACK 21 AUDIO
    TITLE "19:cjc123_3427"
    INDEX 01 00:48:32
  TRACK 22 AUDIO
    TITLE "0:"
    INDEX 01 00:53:11
  TRACK 23 AUDIO
    TITLE "20:cjc123_3428"
    INDEX 01 00:53:43
  TRACK 24 AUDIO
    TITLE "0:"
    INDEX 01 00:57:54
  TRACK 25 AUDIO
    TITLE "21:cjc123_3429"
    INDEX 01 00:58:07
  TRACK 26 AUDIO
    TITLE "0:"
    INDEX 01 01:02:63
  TRACK 27 AUDIO
    TITLE "19:cjc123_3430"
    INDEX 01 01:03:31
  TRACK 28 AUDIO
    TITLE "0:"
    INDEX 01 01:08:03
  TRACK 29 AUDIO
    TITLE "20:cjc123_3431"
    INDEX 01 01:08:35
  TRACK 30 AUDIO
    TITLE "0:"
    INDEX 01 01:14:63
  TRACK 31 AUDIO
    TITLE "21:cjc123_3432"
    INDEX 01 01:15:15
  TRACK 32 AUDIO
    TITLE "0:"
    INDEX 01 01:19:60
  TRACK 33 AUDIO
    TITLE "19:cjc123_3433"
    INDEX 01 01:20:44
  TRACK 34 AUDIO
    TITLE "0:"
    INDEX 01 01:26:11
  TRACK 35 AUDIO
    TITLE "20:cjc123_3434"
    INDEX 01 01:26:44
  TRACK 36 AUDIO
    TITLE "0:"
    INDEX 01 01:32:17
  TRACK 37 AUDIO
    TITLE "21:cjc123_3435"
    INDEX 01 01:32:49
  TRACK 38 AUDIO
    TITLE "0:"
    INDEX 01 01:38:18
  TRACK 39 AUDIO
    TITLE "19:cjc123_3436"
    INDEX 01 01:38:67
  TRACK 40 AUDIO
    TITLE "0:"
    INDEX 01 01:43:15
  TRACK 41 AUDIO
    TITLE "20:cjc123_3437"
    INDEX 01 01:43:54
  TRACK 42 AUDIO
    TITLE "0:"
    INDEX 01 01:48:50
  TRACK 43 AUDIO
    TITLE "21:cjc123_3438"
    INDEX 01 01:49:06
  TRACK 44 AUDIO
    TITLE "0:"
    INDEX 01 01:53:29
  TRACK 45 AUDIO
    TITLE "19:cjc123_3439"
    INDEX 01 01:54:23
  TRACK 46 AUDIO
    TITLE "0:"
    INDEX 01 01:58:05
  TRACK 47 AUDIO
    TITLE "20:cjc123_3440"
    INDEX 01 01:58:54
  TRACK 48 AUDIO
    TITLE "0:"
    INDEX 01 02:03:38
  TRACK 49 AUDIO
    TITLE "21:cjc123_3441"
    INDEX 01 02:03:73
  TRACK 50 AUDIO
    TITLE "0:"
    INDEX 01 02:07:57
  TRACK 51 AUDIO
    TITLE "19:cjc123_3442"
    INDEX 01 02:08:37
  TRACK 52 AUDIO
    TITLE "0:"
    INDEX 01 02:12:50
  TRACK 53 AUDIO
    TITLE "20:cjc123_3443"
    INDEX 01 02:13:18
  TRACK 54 AUDIO
    TITLE "0:"
    INDEX 01 02:18:23
  TRACK 55 AUDIO
    TITLE "21:cjc123_3444"
    INDEX 01 02:18:49
  TRACK 56 AUDIO
    TITLE "0:"
    INDEX 01 02:22:62
  TRACK 57 AUDIO
    TITLE "19:cjc123_3445"
    INDEX 01 02:23:44
  TRACK 58 AUDIO
    TITLE "0:"
    INDEX 01 02:27:20
  TRACK 59 AUDIO
    TITLE "20:cjc123_3446"
    INDEX 01 02:27:69
  TRACK 60 AUDIO
    TITLE "0:"
    INDEX 01 02:32:02
  TRACK 61 AUDIO
    TITLE "21:cjc123_3447"
    INDEX 01 02:32:29
  TRACK 62 AUDIO
    TITLE "0:"
    INDEX 01 02:36:08
  TRACK 63 AUDIO
    TITLE "19:cjc123_3448"
    INDEX 01 02:36:70
  TRACK 64 AUDIO
    TITLE "0:"
    INDEX 01 02:41:05
  TRACK 65 AUDIO
    TITLE "20:cjc123_3449"
    INDEX 01 02:41:42
  TRACK 66 AUDIO
    TITLE "0:"
    INDEX 01 02:46:28
  TRACK 67 AUDIO
    TITLE "21:cjc123_3450"
    INDEX 01 02:46:57
  TRACK 68 AUDIO
    TITLE "0:"
    INDEX 01 02:50:68
  TRACK 69 AUDIO
    TITLE "19:cjc123_3451"
    INDEX 01 02:51:40
  TRACK 70 AUDIO
    TITLE "0:"
    INDEX 01 02:56:00
  TRACK 71 AUDIO
    TITLE "20:cjc123_3452"
    INDEX 01 02:56:44
  TRACK 72 AUDIO
    TITLE "0:"
    INDEX 01 03:01:11
  TRACK 73 AUDIO
    TITLE "21:cjc123_3453"
    INDEX 01 03:01:45
  TRACK 74 AUDIO
    TITLE "0:"
    INDEX 01 03:06:05
  TRACK 75 AUDIO
    TITLE "19:cjc123_3454"
    INDEX 01 03:06:56
  TRACK 76 AUDIO
    TITLE "0:"
    INDEX 01 03:10:32
  TRACK 77 AUDIO
    TITLE "20:cjc123_3455"
    INDEX 01 03:10:63
  TRACK 78 AUDIO
    TITLE "0:"
    INDEX 01 03:14:08
  TRACK 79 AUDIO
    TITLE "21:cjc123_3456"
    INDEX 01 03:14:36
  TRACK 80 AUDIO
    TITLE "0:"
    INDEX 01 03:18:14
  TRACK 81 AUDIO
    TITLE "19:cjc123_3457"
    INDEX 01 03:19:02
  TRACK 82 AUDIO
    TITLE "0:"
    INDEX 01 03:23:44
  TRACK 83 AUDIO
    TITLE "20:cjc123_3458"
    INDEX 01 03:24:01
  TRACK 84 AUDIO
    TITLE "0:"
    INDEX 01 03:28:48
  TRACK 85 AUDIO
    TITLE "21:cjc123_3459"
    INDEX 01 03:29:00
  TRACK 86 AUDIO
    TITLE "0:"
    INDEX 01 03:33:41
  TRACK 87 AUDIO
    TITLE "19:cjc123_3460"
    INDEX 01 03:34:17
  TRACK 88 AUDIO
    TITLE "0:"
    INDEX 01 03:39:00
  TRACK 89 AUDIO
    TITLE "20:cjc123_3461"
    INDEX 01 03:39:30
  TRACK 90 AUDIO
    TITLE "0:"
    INDEX 01 03:45:03
  TRACK 91 AUDIO
    TITLE "21:cjc123_3462"
    INDEX 01 03:45:34
  TRACK 92 AUDIO
    TITLE "0:"
    INDEX 01 03:50:18
